<svg xmlns="http://www.w3.org/2000/svg" height="800" width="1200" viewBox="-59.05935 -24.49875 511.8477 146.9925"><path d="M34.998 0c-7.305 0-15.966 7.023-23.11 18.83C4.442 31.058 0 46.196 0 59.342c0 19.245 10.8 38.653 35 38.653 24.171 0 35-19.408 35-38.653 0-13.146-4.44-28.284-11.85-40.512C50.939 7.023 42.279 0 34.998 0zm188.991 28.874h24.5v63.873h26.25V28.874h24.49V5.247h-75.24v23.624zm131.24 0h38.5V5.247h-38.5c-35.37 0-54.26 17.586-54.26 43.747s18.89 43.753 54.26 43.753h38.5V69.121h-38.5c-16.37 0-27.13-5.851-27.13-20.124s10.76-20.123 27.13-20.123zM170.599 5.247l-13.99 52.225-13.99-52.225h-46.37v87.5h26.24v-71.17l19.07 71.17h30.1l19.08-71.213v71.213h26.25v-87.5z" fill="#e30613" fill-rule="evenodd"/></svg>